<?xml version="1.0" encoding="utf-8"?>
<!-- Generator: Adobe Illustrator 26.5.0, SVG Export Plug-In . SVG Version: 6.00 Build 0)  -->
<svg version="1.1" id="Layer_1" xmlns="http://www.w3.org/2000/svg" xmlns:xlink="http://www.w3.org/1999/xlink" x="0px" y="0px"
	 viewBox="0 0 797.4 96.9" style="enable-background:new 0 0 797.4 96.9;" xml:space="preserve">
<style type="text/css">
	.st0{fill:#FFFFFF;}
</style>
<g>
	<g>
		<path class="st0" d="M40.2,53.8c-4.1-3.3-7.6-6.3-11.9-6.3c-6.7,0-9.9,5.4-10.4,15.1H0C0.2,40,9.5,27.4,26.6,27.4
			c10.8,0,17.5,5.4,22.9,10.1c4.1,3.3,7.6,6.3,11.9,6.3c6.7,0,9.9-5.4,10.4-15.1h17.9c-0.4,22.5-9.5,35.4-26.7,35.4
			C52.4,64.1,45.7,58.5,40.2,53.8z"/>
		<path class="st0" d="M148.5,48.5c0-28,20.5-48.5,49.6-48.5s49.6,20.5,49.6,48.5s-20.5,48.5-49.6,48.5S148.5,76.4,148.5,48.5z
			 M225.1,48.5c0-16.2-10.8-27.8-27-27.8s-27.2,11.6-27.2,27.8s11,27.8,27.2,27.8S225.1,64.7,225.1,48.5z"/>
		<path class="st0" d="M258.5,48.5C258.5,20.5,279,0,308,0c25,0,43.2,15.1,47.7,36.9h-22.4c-3.9-9.9-13.2-16.2-25.3-16.2
			c-16.2,0-27.2,11.5-27.2,27.8s11,27.8,27.2,27.8c12.1,0,21.4-6.3,25.3-16.2h22.4C351.2,81.8,333,96.9,308,96.9
			C279,96.9,258.5,76.4,258.5,48.5z"/>
		<path class="st0" d="M366.5,48.5c0-28,20.5-48.5,49.6-48.5s49.2,20.5,49.2,48.5v7.8h-75.5c3,13.4,13.2,20.5,26.3,20.5
			c9.9,0,17.1-2.8,21.8-8.8h23.7c-6.9,17.5-23.7,28.9-45.5,28.9C387,96.9,366.5,76.4,366.5,48.5z M441.8,38.6
			c-3.5-12.3-13.6-18.5-25.7-18.5c-12.5,0-22.2,6.3-25.7,18.5H441.8z"/>
		<path class="st0" d="M476.1,49.4c0-29.3,20.5-49.4,49.8-49.4c28.9,0,49,19.6,49,49.2v45.3h-20.3V76.4C549,90,536.5,96.9,522,96.9
			C499.6,96.9,476.1,80.9,476.1,49.4z M552.7,48.5c0-16.2-10.8-27.8-27-27.8c-16.2,0-27.2,11.6-27.2,27.8s11,27.8,27.2,27.8
			C541.9,76.2,552.7,64.7,552.7,48.5z"/>
		<path class="st0" d="M593.1,46.6c0-30.8,18.3-46.6,45.5-46.6s45.5,15.6,45.5,46.6v47.9h-22.2V46.6c0-17.5-9.3-25.9-23.3-25.9
			s-23.3,8.4-23.3,25.9v47.9h-22.2L593.1,46.6L593.1,46.6z"/>
		<path class="st0" d="M698.6,48.5c0-28,20.5-48.5,49.6-48.5s49.2,20.5,49.2,48.5v7.8h-75.5c3,13.4,13.2,20.5,26.3,20.5
			c9.9,0,17.1-2.8,21.8-8.8h23.7c-6.9,17.5-23.7,28.9-45.5,28.9C719.1,96.9,698.6,76.4,698.6,48.5z M773.9,38.6
			c-3.5-12.3-13.6-18.5-25.7-18.5c-12.5,0-22.2,6.3-25.7,18.5H773.9z"/>
	</g>
</g>
</svg>
